<?xml version="1.0" encoding="UTF-8"?>
<svg id="a" data-name="Layer 1" xmlns="http://www.w3.org/2000/svg" viewBox="0 0 511.34 512">
  <defs>
    <style>
      .b {
        stroke-width: 0px;
      }
    </style>
  </defs>
  <path class="b" d="m511.31,251.38c2.04,143.43-109.91,253.61-241.67,260.27C120.77,519.18,7.28,403.3.38,271.01-7.51,119.92,109.76,8.28,239.06.49c149.73-9.03,270.03,109.03,272.25,250.89Zm-75.72,148.49c81.18-100.34,64.09-251.55-45.72-331.14C287.54-5.43,141.66,15.96,65.96,125.49c-37.75,54.61-49.14,115.25-35.37,180.26,7.46,35.2,22.87,66.76,46.06,95.36,4.52-21.24,11.87-40.31,22.77-57.91,22.48-36.31,53.67-61.99,93.77-76.81,3.8-1.4,6.75-1.04,10.32.74,35.57,17.68,71.03,17.24,106.36-.92,1.62-.83,4.12-1,5.86-.42,13.76,4.55,26.72,10.86,38.9,18.75,29.37,19.01,51.81,44.23,66.33,76.06,5.81,12.74,9.85,26.3,14.63,39.29Z"/>
  <path class="b" d="m252.66,256.36c-48.47-1.26-89.39-40.98-88.58-92.74.84-53.38,43.8-90.3,90.92-90.55,52.5-.28,94.23,42.93,92.12,95.63-2.02,50.55-44.82,89.68-94.46,87.67Z"/>
</svg>